<?xml version="1.0" encoding="UTF-8"?>
<svg width="42px" height="42px" viewBox="0 0 42 42" version="1.1" xmlns="http://www.w3.org/2000/svg" xmlns:xlink="http://www.w3.org/1999/xlink">
    <title>Group 3</title>
    <g id="Symbols" stroke="none" stroke-width="1" fill="none" fill-rule="evenodd">
        <g id="header-home" transform="translate(-120.000000, -411.000000)">
            <g id="Group-3" transform="translate(120.000000, 411.000000)">
                <g id="Group" fill="#000000">
                    <circle id="Oval" cx="21" cy="21" r="21"></circle>
                </g>
                <g id="Group-2" transform="translate(4.000000, 17.000000)" fill="#FFFFFF" fill-rule="nonzero">
                    <polygon id="Path" points="0 9 4.5 9 4.5 2.25 6.75 2.25 6.75 9 9 9 9 0 0 0"></polygon>
                    <path d="M11,0 L11,11 L15.5,11 L15.5,8.8 L20,8.8 L20,0 L11,0 Z M18,6 L16,6 L16,2 L18,2 L18,6 Z" id="Shape"></path>
                    <polygon id="Path" points="22 0 22 9 26.3333333 9 26.3333333 2.25 28.5 2.25 28.5 9 30.6666667 9 30.6666667 2.25 32.8333333 2.25 32.8333333 9 35 9 35 0"></polygon>
                </g>
            </g>
        </g>
    </g>
</svg>