<?xml version="1.0" encoding="UTF-8"?>
<svg width="42px" height="40px" viewBox="0 0 42 40" version="1.1" xmlns="http://www.w3.org/2000/svg" xmlns:xlink="http://www.w3.org/1999/xlink">
    <title>001-github</title>
    <g id="Page-1" stroke="none" stroke-width="1" fill="none" fill-rule="evenodd">
        <g id="Timeline" transform="translate(-162.000000, -436.000000)" fill="#000000" fill-rule="nonzero">
            <g id="001-github" transform="translate(162.000000, 436.000000)">
                <path d="M20.997375,0 C9.40275,0 0,9.18112239 0,20.5068896 C0,29.5654609 6.0165,37.2504382 14.364,39.9644351 C15.414,40.1533681 15.79725,39.5201873 15.79725,38.9763666 C15.79725,38.4887152 15.778875,37.1993752 15.768375,35.4887656 C9.92775,36.7270427 8.694,32.7390246 8.694,32.7390246 C7.741125,30.3697027 6.363,29.739075 6.363,29.739075 C4.454625,28.467607 6.50475,28.4931384 6.50475,28.4931384 C8.612625,28.6386679 9.720375,30.6071455 9.720375,30.6071455 C11.594625,33.7398588 14.637,32.8360442 15.834,32.3100956 C16.023,30.9850115 16.566375,30.0811969 17.1675,29.568014 C12.5055,29.0497248 7.602,27.2906054 7.602,19.4345672 C7.602,17.1954559 8.421,15.3648483 9.765,13.9299788 C9.547125,13.4116896 8.827875,11.3257672 9.96975,8.50453801 C9.96975,8.50453801 11.73375,7.95305791 15.74475,10.6057793 C17.4195,10.1513189 19.215,9.92408863 21.002625,9.91642918 C22.785,9.92664178 24.583125,10.1513189 26.2605,10.6083325 C30.268875,7.95561106 32.03025,8.50709115 32.03025,8.50709115 C33.17475,11.3308735 32.4555,13.4142428 32.24025,13.9325319 C33.586875,15.3674015 34.398,17.198009 34.398,19.4371203 C34.398,27.3135838 29.48925,29.0471717 24.8115,29.5552483 C25.564875,30.1884291 26.236875,31.4394719 26.236875,33.3517802 C26.236875,36.0938618 26.210625,38.3048885 26.210625,38.9763666 C26.210625,39.5252936 26.588625,40.1635807 27.654375,39.961882 C35.98875,37.2453319 42,29.5629077 42,20.5068896 C42,9.18112239 32.59725,0 20.997375,0 Z" id="Path"></path>
            </g>
        </g>
    </g>
</svg>