<?xml version="1.0" encoding="UTF-8"?>
<svg width="42px" height="42px" viewBox="0 0 42 42" version="1.1" xmlns="http://www.w3.org/2000/svg" xmlns:xlink="http://www.w3.org/1999/xlink">
    <title>002-linkedin</title>
    <g id="Page-1" stroke="none" stroke-width="1" fill="none" fill-rule="evenodd">
        <g id="Timeline" transform="translate(-102.000000, -436.000000)" fill="#000000" fill-rule="nonzero">
            <g id="002-linkedin" transform="translate(102.000000, 436.000000)">
                <path d="M21,0 C9.40379336,0 0,9.40379336 0,21 C0,32.5962066 9.40379336,42 21,42 C32.5962066,42 42,32.5962066 42,21 C42,9.40379336 32.5962066,0 21,0 Z M14.897644,31.7460938 L9.78318789,31.7460938 L9.78318789,16.3591461 L14.897644,16.3591461 L14.897644,31.7460938 Z M12.3405762,14.2580566 L12.307251,14.2580566 C10.5910034,14.2580566 9.48101807,13.0766144 9.48101807,11.6000519 C9.48101807,10.0901642 10.6249695,8.94140625 12.3745422,8.94140625 C14.124115,8.94140625 15.2007752,10.0901642 15.2341004,11.6000519 C15.2341004,13.0766144 14.124115,14.2580566 12.3405762,14.2580566 Z M33.3392944,31.7460938 L28.2254791,31.7460938 L28.2254791,23.5144501 C28.2254791,21.4457245 27.4849549,20.0348511 25.6344452,20.0348511 C24.2216492,20.0348511 23.380188,20.9865418 23.0104065,21.9052276 C22.8751831,22.2339936 22.8421783,22.6934967 22.8421783,23.1533203 L22.8421783,31.7460938 L17.7280426,31.7460938 C17.7280426,31.7460938 17.7950135,17.8027039 17.7280426,16.3591461 L22.8421783,16.3591461 L22.8421783,18.5377808 C23.5218201,17.4893188 24.7378692,15.9980164 27.4513092,15.9980164 C30.8161926,15.9980164 33.3392944,18.1971588 33.3392944,22.9232483 L33.3392944,31.7460938 Z" id="Shape"></path>
            </g>
        </g>
    </g>
</svg>